<svg xmlns="http://www.w3.org/2000/svg" fill="none" viewBox="0 0 128 128">
  <path d="M50.4 78.5a75.1 75.1 0 0 0-28.5 6.9l24.2-65.7c.7-2 3.5-2 4.3 0l23.2 65.7a76.1 76.1 0 0 0-23.2-6.9z" fill="#ff5d01"/>
  <path d="M52 120.5a72.2 72.2 0 0 0 36.5-9.5c2-1.2 3.6-2.5 5-4l-25.8-73.8c-.7-2-3.5-2-4.3 0l-25.2 71.4a72 72 0 0 0 13.8 15.9z" fill="#ff8e3c"/>
  <path d="M104.3 98.2a73.3 73.3 0 0 0 1.5-51.7h-20a75.5 75.5 0 0 0-11.3 24.2l-3 11.5 32.8 16z" fill="#ff5d01"/>
  <path d="M109.7 83.5a73 73 0 0 0-4-36.7h-15.6a75.5 75.5 0 0 0-7.6 24.2c0 3.8.3 7.5.9 11.1l26.3 1.4z" fill="#ff8e3c"/>
</svg>